<svg xmlns="http://www.w3.org/2000/svg" viewBox="0 0 179.13 201.44"><defs><style>.cls-1{fill:#fff;}</style></defs><title>Asset 1</title><g id="Layer_2" data-name="Layer 2"><g id="Layer_1-2" data-name="Layer 1"><path class="cls-1" d="M128.93,96.88c6,2.54,11.52,4.79,17,7.2s6,4.34,3.31,10.7c-2.5,5.8-4.44,6.74-9.92,4.48-8.44-3.49-16.88-7-25.26-10.63-5.55-2.4-6.3-4.51-3.88-10.2,9.82-23.1,19.73-46.16,29.4-69.32a12.15,12.15,0,0,0,.32-7.45c-2.39-8.21,1.2-16,9.18-19a15.11,15.11,0,0,1,18.77,8.07A14.65,14.65,0,0,1,160.38,30c-3.08,1.37-4.4,3.39-5.61,6.27C146.33,56.36,137.72,76.34,128.93,96.88Zm24.87-72A8.18,8.18,0,1,0,146,16.33,8.15,8.15,0,0,0,153.8,24.88Z"/><path class="cls-1" d="M73.09,122.72c-2.36,5.52-4.69,11-7,16.44s-4.46,6.08-10.29,3.73-7.21-4.63-5.16-9.72c3.55-8.78,7.25-17.5,11-26.2,2.15-5,4.47-5.76,10-3.44q33.78,14.2,67.54,28.47c3.52,1.48,6.65,2.53,10.87,1.28,7.74-2.3,15.67,3,17.71,10.7a15,15,0,0,1-28.62,8.92c-.69-1.64-2-3.59-3.48-4.24-20-8.57-40.09-16.94-60.16-25.35A20.1,20.1,0,0,0,73.09,122.72ZM153,155.87a8,8,0,0,0,8.18-8.22,7.9,7.9,0,0,0-7.85-8,8.12,8.12,0,0,0-8.3,8.14A8.45,8.45,0,0,0,153,155.87Z"/><path class="cls-1" d="M47,66.52c-5.42-2.23-10.9-4.47-16.37-6.74-5.62-2.34-6.28-4.5-3.5-11.15,2.35-5.62,4.57-6.62,10-4.34q12.4,5.19,24.77,10.5C68,57.41,68.67,59,66.14,65.15Q52,99.45,37.69,133.72c-1.07,2.57-1.42,4.59,0,7.36a14.56,14.56,0,0,1-6.81,19.49c-7,3.38-15.95.7-19.57-5.84-4.14-7.47-1.81-15.82,5.47-20.37,1.7-1.06,3.6-2.55,4.34-4.29C29.78,109.58,38.26,89,46.78,68.45A9.07,9.07,0,0,0,47,66.52ZM24.18,155.41a8.13,8.13,0,0,0,0-16.25,8.13,8.13,0,1,0,0,16.25Z"/><path class="cls-1" d="M103.71,41c2.55-5.85,4.87-11.35,7.34-16.77,2.57-5.64,4.42-6.18,10.71-3.42,5.79,2.55,6.74,4.52,4.45,10-3.52,8.42-7.14,16.81-10.77,25.19-2.3,5.33-4.75,6.23-10.19,3.88C81.9,49.77,58.58,39.66,35.18,29.73a10.52,10.52,0,0,0-6.46-.45c-7.58,2.1-15.64-1.59-18.38-8.83-2.85-7.5.77-16.24,8-19.2C25.9-1.89,34.48,1,37.53,8.67c1.64,4.11,4.34,5.77,7.92,7.29C64.69,24.15,83.89,32.45,103.71,41ZM24.32,23a7.79,7.79,0,0,0,7.88-7.91,7.78,7.78,0,0,0-8.12-8.18,8.26,8.26,0,0,0-8,8.44A8.17,8.17,0,0,0,24.32,23Z"/><path class="cls-1" d="M166.46,63.36c-.4,1.31-.54,2-.8,2.58q-6.72,15.77-13.48,31.52a1.41,1.41,0,0,1-.2.45c-4.36,5.2-7.52-.85-11.24-1.38-2.28-.32-5.66-1.24-4-5.25,4.59-10.82,9.1-21.68,13.89-32.41a4.65,4.65,0,0,1,4-1.95,47,47,0,0,1,9.18,3.73C165,61.22,165.76,62.59,166.46,63.36Z"/><path class="cls-1" d="M77.36,129.68c.93.35,1.87.66,2.79,1,10,4.17,19.9,8.39,29.89,12.5,3.17,1.3,4.4,2.93,2.8,6.46-5.78,12.74-2.66,11.24-15.12,6.33-8-3.17-16-6.71-24-9.88-3.37-1.33-4.42-3.12-2.75-6.47,1.26-2.52,2.29-5.16,3.35-7.78.51-1.25.85-2.57,1.27-3.85Z"/><path class="cls-1" d="M107.39,20.51c-2,4.4-3.5,8.26-5.47,11.89-.38.69-2.7,1-3.75.56-10.86-4.53-22-8.6-32.33-14.15C59.42,15.37,66.78,11,67.21,7c.27-2.54,1.85-4.58,5.29-3,10.6,4.72,21.3,9.24,31.91,13.94C105.56,18.4,106.41,19.62,107.39,20.51Z"/><path class="cls-1" d="M22.75,107.36a116.79,116.79,0,0,1-10.95-4.71c-.82-.44-1.28-3-.81-4.19,4.29-10.8,8.82-21.5,13.29-32.22.19-.46.38-1.07.76-1.27,5.08-2.83,8.47,1.86,12.59,3.13,1,.31,2.2,3.34,1.74,4.51-4.21,10.83-8.78,21.52-13.2,32.26-.58,1.39-.91,2.88-1.35,4.32Z"/><path class="cls-1" d="M21.13,180.48a8,8,0,0,1,4.37-1.1,7.53,7.53,0,0,1,5.82,2.31,9.18,9.18,0,0,1,2.12,6.43v12.77H27.85V189.26q0-4.55-3.78-4.54a4.54,4.54,0,0,0-2.14.46,3.84,3.84,0,0,0-1.43,1.28,5.9,5.9,0,0,0-.8,1.93,11.14,11.14,0,0,0-.25,2.46v10H13.9V189.26q0-4.55-3.82-4.54a4.4,4.4,0,0,0-2.12.46,4,4,0,0,0-1.41,1.28,5.46,5.46,0,0,0-.77,1.93,11.8,11.8,0,0,0-.24,2.46v10H0v-21H5.38V183a8.59,8.59,0,0,1,2.52-2.54,7.21,7.21,0,0,1,4-1c3.14,0,5.31,1.31,6.51,3.91A7.78,7.78,0,0,1,21.13,180.48Z"/><path class="cls-1" d="M37.84,186.06a10.63,10.63,0,0,1,2.14-3.5,9.61,9.61,0,0,1,3.39-2.34,11.41,11.41,0,0,1,4.47-.84,11.29,11.29,0,0,1,4.33.8,9.11,9.11,0,0,1,3.27,2.25A9.79,9.79,0,0,1,57.5,186a14,14,0,0,1,.71,4.6v1.51H42.76l0,.08a4.85,4.85,0,0,0,.82,1.81,5.63,5.63,0,0,0,1.32,1.26,5.41,5.41,0,0,0,1.66.74,7.52,7.52,0,0,0,1.83.23,9.21,9.21,0,0,0,3.38-.59A8.55,8.55,0,0,0,54.39,194l2.31,4.58a13,13,0,0,1-3.32,1.94,13.33,13.33,0,0,1-5,.84,12.87,12.87,0,0,1-4.74-.84,10.23,10.23,0,0,1-3.55-2.32,9.85,9.85,0,0,1-2.21-3.48,12.83,12.83,0,0,1,0-8.7Zm13-.86a4.29,4.29,0,0,0-3.15-1.11,4.68,4.68,0,0,0-5,3.95h9.46A4.61,4.61,0,0,0,50.82,185.2Z"/><path class="cls-1" d="M72,200.93a14.34,14.34,0,0,1-2.21.17,6.42,6.42,0,0,1-4.56-1.51q-1.61-1.51-1.61-5.13v-9.91H59.76v-4.66h3.83v-5.63h5.54v5.63h5.34v4.66H69.13v9.12a1.8,1.8,0,0,0,.51,1.44,2.32,2.32,0,0,0,1.59.45,11.1,11.1,0,0,0,1.28-.07c.44,0,1-.13,1.79-.27v5.25A21.79,21.79,0,0,1,72,200.93Z"/><path class="cls-1" d="M80.64,180.6a13.46,13.46,0,0,1,5.88-1.17q4.62,0,6.91,2C95,182.86,95.72,185,95.72,188v13H90.18v-2.85a8.18,8.18,0,0,1-2.42,2.27,7.41,7.41,0,0,1-4.05,1,8.21,8.21,0,0,1-2.86-.48,6.83,6.83,0,0,1-2.25-1.34,6.07,6.07,0,0,1-1.47-2.06,6.59,6.59,0,0,1-.52-2.67,6.32,6.32,0,0,1,.5-2.58,6,6,0,0,1,1.41-2,7.34,7.34,0,0,1,2.12-1.36,8.78,8.78,0,0,1,2.69-.66l5.75-.5c.73-.08,1.1-.36,1.1-.84v-.34a1.76,1.76,0,0,0-.89-1.51,5.09,5.09,0,0,0-2.77-.59,8.85,8.85,0,0,0-1.64.15,7,7,0,0,0-1.51.46,4.57,4.57,0,0,0-1.26.82,3.49,3.49,0,0,0-.84,1.26l-4.12-2.94A7.05,7.05,0,0,1,80.64,180.6ZM85,192.2a3.67,3.67,0,0,0-2,.82,2,2,0,0,0-.65,1.49,1.94,1.94,0,0,0,.76,1.61,3.44,3.44,0,0,0,2.22.61,5.56,5.56,0,0,0,2-.35,4.9,4.9,0,0,0,1.53-.95,4,4,0,0,0,1-1.37,4.16,4.16,0,0,0,.34-1.65v-.84Z"/><path class="cls-1" d="M96.64,179.89h6.22l5.33,13,5.38-13h6.17l-9.45,21h-4.2Z"/><path class="cls-1" d="M129.67,180.43a6.14,6.14,0,0,1,3.68-1.05,5.85,5.85,0,0,1,1.07.09,9.76,9.76,0,0,1,1,.21v6a5,5,0,0,0-1.22-.27c-.42,0-.85-.06-1.3-.06a4.92,4.92,0,0,0-4,1.53,7,7,0,0,0-1.26,4.56v9.49h-5.55v-21h5.34v3.44A7.18,7.18,0,0,1,129.67,180.43Z"/><path class="cls-1" d="M140.11,181.13a10.69,10.69,0,0,1,6.51-1.75,13,13,0,0,1,4.94.84,10,10,0,0,1,3.42,2.27l-3.11,4a6.25,6.25,0,0,0-2.43-1.55,9.16,9.16,0,0,0-3.24-.59c-1.79,0-2.69.49-2.69,1.47a1,1,0,0,0,.23.65,2.08,2.08,0,0,0,.8.51,10.25,10.25,0,0,0,1.51.44l2.34.5a19.3,19.3,0,0,1,2.6.74,6.76,6.76,0,0,1,2.12,1.2,5.49,5.49,0,0,1,1.45,1.89,6.25,6.25,0,0,1,.55,2.77,5.83,5.83,0,0,1-2.44,5.23A11.86,11.86,0,0,1,146,201.4a16.36,16.36,0,0,1-5.48-.87,8.15,8.15,0,0,1-3.84-2.62l3.23-4.2a7.27,7.27,0,0,0,2.73,2,9.71,9.71,0,0,0,3.91.74,5,5,0,0,0,2-.36,1.26,1.26,0,0,0,.81-1.24,1.06,1.06,0,0,0-.23-.71,1.72,1.72,0,0,0-.77-.51,11.74,11.74,0,0,0-1.45-.42l-2.21-.5a21.9,21.9,0,0,1-2.41-.67,7.79,7.79,0,0,1-2.25-1.18,6,6,0,0,1-1.66-1.91,5.84,5.84,0,0,1-.65-2.88A5.76,5.76,0,0,1,140.11,181.13Z"/><path class="cls-1" d="M179.13,200.89h-5.54V198a8.35,8.35,0,0,1-2.9,2.54,8.53,8.53,0,0,1-4.08.95,9.32,9.32,0,0,1-3.69-.74,8.94,8.94,0,0,1-3-2.14,10.13,10.13,0,0,1-2.08-3.47,15.13,15.13,0,0,1,0-9.41,10.3,10.3,0,0,1,2.06-3.46,8.77,8.77,0,0,1,3-2.14,9.16,9.16,0,0,1,3.65-.74,8.12,8.12,0,0,1,4.22,1,9.31,9.31,0,0,1,2.84,2.54V171.49h5.54Zm-13.06-15.73a5.17,5.17,0,0,0-1.75,1.13,5.25,5.25,0,0,0-1.15,1.79,6.56,6.56,0,0,0,0,4.62,5.21,5.21,0,0,0,1.15,1.78,5.05,5.05,0,0,0,1.75,1.14,5.79,5.79,0,0,0,2.18.4,5.29,5.29,0,0,0,5.5-5.63,5.43,5.43,0,0,0-1.57-4.14,5.51,5.51,0,0,0-3.93-1.49A5.79,5.79,0,0,0,166.07,185.16Z"/></g></g></svg>